<?xml version="1.0" standalone="no"?>
<!DOCTYPE svg PUBLIC "-//W3C//DTD SVG 20010904//EN"
 "http://www.w3.org/TR/2001/REC-SVG-20010904/DTD/svg10.dtd">
<svg version="1.0" xmlns="http://www.w3.org/2000/svg"
 width="1152.000000pt" height="270.000000pt" viewBox="0 0 1152.000000 270.000000"
 preserveAspectRatio="xMidYMid meet">

<g transform="translate(0.000000,270.000000) scale(0.100000,-0.100000)"
fill="#000000" stroke="none">
<path d="M4320 1923 c-73 -38 -103 -136 -63 -204 35 -59 156 -89 221 -55 96
50 110 179 25 243 -46 35 -131 43 -183 16z m166 -24 c59 -36 75 -133 29 -187
-50 -60 -170 -65 -224 -11 -121 120 45 288 195 198z"/>
<path d="M2790 1270 l0 -600 135 0 135 0 0 600 0 600 -135 0 -135 0 0 -600z
m260 5 l0 -585 -125 0 -125 0 0 578 c0 318 3 582 7 585 3 4 60 7 125 7 l118 0
0 -585z"/>
<path d="M10185 1849 c-164 -27 -284 -117 -314 -236 -31 -119 -4 -232 73 -308
67 -66 154 -107 333 -156 203 -56 235 -75 235 -144 0 -81 -60 -118 -192 -119
-70 -1 -93 3 -128 22 -46 24 -82 73 -82 110 0 22 -1 22 -141 22 l-142 0 6 -55
c24 -232 264 -372 574 -335 236 28 376 144 391 325 8 101 -22 184 -93 258 -58
61 -168 109 -334 147 -118 27 -169 46 -203 78 -54 50 -25 130 53 146 47 9 129
7 171 -4 39 -11 88 -60 88 -89 0 -15 12 -19 61 -25 34 -3 97 -6 140 -6 l79 0
0 38 c0 128 -92 255 -218 300 -102 38 -244 50 -357 31z m270 -21 c75 -16 154
-56 201 -103 45 -46 84 -133 84 -190 l0 -35 -125 0 c-115 0 -125 1 -125 19 0
24 -35 68 -68 85 -68 35 -197 31 -254 -7 -44 -30 -57 -76 -34 -123 21 -46 82
-74 248 -113 276 -66 387 -160 396 -340 3 -41 -1 -90 -6 -110 -51 -168 -249
-265 -507 -247 -154 10 -244 44 -320 121 -24 24 -52 60 -63 82 -25 48 -45 144
-34 155 5 5 62 7 127 6 l119 -3 7 -35 c9 -43 63 -95 116 -109 56 -16 161 -13
218 7 95 33 125 133 57 193 -34 31 -72 45 -245 93 -160 45 -228 78 -294 142
-126 125 -108 333 40 445 100 75 292 103 462 67z"/>
<path d="M612 1253 l3 -578 140 0 140 0 3 228 2 227 240 0 240 0 0 -230 0
-230 140 0 140 0 0 580 0 580 -140 0 -140 0 0 -225 0 -225 -202 0 c-112 0
-220 3 -240 6 l-38 7 0 196 c0 108 -3 206 -6 219 -6 21 -10 22 -145 22 l-139
0 2 -577z m268 342 l0 -225 255 0 255 0 0 225 0 226 125 -3 c69 -2 125 -6 125
-10 0 -5 0 -258 0 -563 l0 -555 -125 0 -125 0 0 230 0 230 -255 0 -255 0 0
-230 0 -230 -125 0 -125 0 0 565 0 565 125 0 125 0 0 -225z"/>
<path d="M6780 1250 l0 -580 415 0 415 0 0 125 0 125 -229 0 c-125 0 -249 3
-275 6 l-46 7 0 103 0 104 235 0 235 0 0 98 c0 53 -3 107 -6 120 l-6 22 -229
0 -229 0 0 100 0 100 270 0 270 0 0 125 0 125 -410 0 -410 0 0 -580z m801 566
c2 -2 3 -52 1 -110 l-3 -106 -267 -2 -267 -3 0 -115 0 -115 233 -3 232 -2 0
-100 0 -100 -232 -2 -233 -3 -3 -122 -3 -123 276 0 275 0 0 -110 0 -110 -400
0 -400 0 0 558 c0 307 3 562 7 565 7 7 777 10 784 3z"/>
<path d="M7640 1705 l0 -125 160 0 160 0 0 -455 0 -455 140 0 140 0 0 455 0
455 160 0 160 0 0 125 0 125 -460 0 -460 0 0 -125z m900 5 l0 -109 -157 -3
-158 -3 -3 -452 -2 -453 -125 0 -125 0 0 456 0 456 -157 -3 -158 -4 -3 99 c-1
55 0 106 2 113 4 10 90 13 446 13 l440 0 0 -110z"/>
<path d="M8660 1250 l0 -580 140 0 140 0 0 230 0 230 240 0 240 0 2 -227 3
-228 140 0 140 0 3 545 c1 300 0 560 -3 578 l-6 32 -139 0 -140 0 0 -225 0
-225 -194 0 c-106 0 -214 3 -240 6 l-46 7 0 218 0 219 -140 0 -140 0 0 -580z
m260 345 l0 -225 260 0 260 0 0 225 0 225 125 0 125 0 0 -565 0 -565 -125 0
-125 0 0 230 0 230 -260 0 -260 0 0 -230 0 -230 -125 0 -125 0 0 565 0 565
125 0 125 0 0 -225z"/>
<path d="M2166 1579 c-93 -14 -186 -62 -254 -133 -93 -97 -132 -195 -132 -331
0 -293 244 -505 535 -464 146 20 299 132 344 253 12 31 21 59 21 61 0 3 -64 5
-142 5 l-143 0 -27 -34 c-36 -45 -116 -66 -180 -47 -47 14 -92 51 -114 93 -31
60 -44 57 304 60 l317 3 3 61 c14 298 -232 516 -532 473z m215 -28 c180 -57
299 -224 299 -423 l0 -68 -325 0 -324 0 13 -44 c8 -25 24 -59 36 -76 63 -88
240 -94 302 -10 l22 30 129 0 128 0 -7 -22 c-42 -137 -182 -247 -343 -270
-193 -27 -361 51 -455 212 -45 77 -61 141 -60 240 1 141 44 242 141 336 108
103 291 142 444 95z"/>
<path d="M2202 1368 c-63 -11 -105 -41 -136 -98 l-27 -50 195 0 c215 0 213 -1
181 60 -34 66 -125 104 -213 88z m141 -36 c35 -20 80 -79 71 -93 -11 -18 -344
-7 -344 11 0 19 70 83 105 96 49 18 125 12 168 -14z"/>
<path d="M5155 1580 c-64 -10 -121 -33 -167 -71 l-38 -30 0 41 0 40 -130 0
-130 0 0 -445 0 -445 134 0 135 0 3 263 c3 258 3 263 28 306 36 64 69 84 143
89 75 4 114 -16 142 -74 17 -35 20 -70 23 -311 l4 -273 134 0 134 0 0 278 c0
303 -8 371 -55 465 -15 28 -38 65 -53 80 -64 68 -192 104 -307 87z m176 -26
c100 -33 181 -135 208 -262 6 -32 11 -164 11 -327 l0 -275 -119 0 -120 0 -3
268 c-3 264 -3 268 -28 312 -34 61 -77 83 -154 76 -72 -5 -120 -40 -156 -112
-24 -48 -25 -56 -28 -296 l-4 -248 -119 0 -119 0 0 425 0 425 115 0 115 0 0
-57 0 -58 33 36 c49 54 72 71 129 90 67 23 173 24 239 3z"/>
<path d="M6012 1578 c-84 -13 -154 -52 -217 -120 -84 -91 -125 -196 -125 -323
0 -133 39 -226 134 -320 84 -84 153 -110 291 -110 110 0 173 20 228 72 l27 27
0 -40 c0 -63 -18 -110 -55 -143 -92 -81 -269 -64 -320 31 l-20 38 -127 0 -126
0 5 -42 c8 -64 46 -141 93 -188 126 -126 390 -157 587 -70 67 29 156 120 189
193 l29 62 3 458 3 457 -131 0 -130 0 0 -46 0 -46 -39 35 c-69 62 -190 93
-299 75z m213 -37 c28 -12 71 -44 98 -73 l47 -50 0 61 0 61 115 0 115 0 0
-382 c0 -211 -5 -416 -10 -456 -22 -167 -128 -281 -305 -328 -61 -17 -215 -18
-287 -3 -146 31 -257 138 -274 263 l-7 46 117 0 c94 0 116 -3 116 -14 0 -23
51 -78 87 -92 18 -8 63 -14 100 -14 157 1 221 64 229 224 5 80 5 81 -13 56
-58 -81 -119 -112 -232 -118 -146 -8 -239 26 -326 119 -142 152 -150 410 -17
579 49 62 107 106 173 131 73 27 203 22 274 -10z"/>
<path d="M6055 1334 c-59 -22 -103 -70 -121 -133 -48 -164 84 -309 248 -273
102 23 168 104 168 207 0 153 -147 253 -295 199z m203 -41 c47 -37 82 -105 82
-158 0 -53 -35 -121 -83 -159 -36 -29 -45 -31 -116 -31 -65 0 -83 4 -113 24
-62 43 -83 85 -83 166 0 61 4 77 27 112 40 60 96 85 181 80 57 -4 74 -9 105
-34z"/>
<path d="M3618 1565 c-44 -16 -124 -69 -131 -87 -3 -7 -6 8 -6 35 l-1 47 -130
0 -130 0 0 -589 0 -588 61 -7 c34 -3 95 -6 135 -6 l74 0 0 191 0 191 37 -32
c129 -114 356 -96 491 39 244 244 158 701 -152 804 -60 21 -195 21 -248 2z
m274 -27 c224 -103 316 -403 198 -651 -60 -126 -186 -214 -322 -224 -111 -8
-176 14 -244 82 l-54 54 0 -205 0 -204 -120 0 -120 0 0 575 0 575 115 0 115 0
0 -58 0 -58 59 57 c74 72 123 90 236 86 60 -2 94 -10 137 -29z"/>
<path d="M3610 1335 c-87 -40 -134 -117 -134 -220 0 -82 22 -134 78 -183 92
-80 237 -58 311 46 28 41 30 49 30 136 0 84 -2 96 -28 134 -40 61 -94 93 -164
98 -39 3 -69 -1 -93 -11z m194 -38 c61 -47 81 -91 81 -182 0 -92 -16 -128 -78
-178 -31 -26 -49 -32 -100 -35 -79 -4 -138 24 -182 86 -27 40 -30 51 -30 127
0 77 2 87 30 127 48 67 96 90 177 85 53 -3 75 -10 102 -30z"/>
<path d="M4260 1115 l0 -445 135 0 135 0 0 445 0 445 -135 0 -135 0 0 -445z
m260 0 l0 -425 -125 0 -125 0 0 425 0 425 125 0 125 0 0 -425z"/>
</g>
</svg>
